<svg xmlns="http://www.w3.org/2000/svg" viewBox="0 0 64 64">
  <defs>
    <linearGradient id="rose" x1="0" y1="0" x2="1" y2="1">
      <stop offset="0%" stop-color="#B89968"/>
      <stop offset="100%" stop-color="#8C6F3F"/>
    </linearGradient>
  </defs>
  <circle cx="32" cy="32" r="30" fill="#0F2540"/>
  <circle cx="32" cy="32" r="26" fill="none" stroke="#B89968" stroke-width="0.5" opacity="0.4"/>
  <!-- Cardinal long points -->
  <polygon points="32,4 36,30 32,32 28,30" fill="url(#rose)"/>
  <polygon points="32,60 28,34 32,32 36,34" fill="url(#rose)" opacity="0.6"/>
  <polygon points="60,32 34,28 32,32 34,36" fill="url(#rose)" opacity="0.85"/>
  <polygon points="4,32 30,36 32,32 30,28" fill="url(#rose)" opacity="0.85"/>
  <!-- Diagonal short points -->
  <polygon points="51.8,12.2 36.2,28 32,32 28,27.8" fill="#B89968" opacity="0.7"/>
  <polygon points="12.2,51.8 27.8,36 32,32 36,36.2" fill="#B89968" opacity="0.5"/>
  <polygon points="51.8,51.8 36,36.2 32,32 36.2,28" fill="#B89968" opacity="0.6"/>
  <polygon points="12.2,12.2 27.8,28 32,32 28,36.2" fill="#B89968" opacity="0.6"/>
  <!-- Center node -->
  <circle cx="32" cy="32" r="2.5" fill="#F5F2EA"/>
  <circle cx="32" cy="32" r="1" fill="#0F2540"/>
</svg>
